<?xml version="1.0" encoding="utf-8"?>
<!-- Generator: Adobe Illustrator 17.1.0, SVG Export Plug-In . SVG Version: 6.00 Build 0)  -->
<!DOCTYPE svg PUBLIC "-//W3C//DTD SVG 1.1//EN" "http://www.w3.org/Graphics/SVG/1.1/DTD/svg11.dtd">
<svg version="1.1" id="Layer_2" xmlns="http://www.w3.org/2000/svg" xmlns:xlink="http://www.w3.org/1999/xlink" x="0px" y="0px"
	 viewBox="0 0 230 230" enable-background="new 0 0 230 230" xml:space="preserve" width="230px" height="230px">
<rect x="34" y="168" fill="#0A9FDB" width="11" height="3"/>
<rect x="57" y="182" fill="#0A9FDB" width="24" height="3"/>
<rect x="121" y="183" fill="#0A9FDB" width="19" height="3"/>
<rect x="88" y="169" fill="#0A9FDB" width="28" height="3"/>
<rect x="144" y="166" fill="#0A9FDB" width="13" height="3"/>
<rect x="176" y="172" fill="#0A9FDB" width="20" height="3"/>
<rect x="15" y="158" fill="#005E93" width="200" height="3"/>
<g>
	<g>
		<g>
			<polygon fill="#FFFFFF" points="93.895,147.5 97.718,82.5 101.889,82.5 105.713,147.5 			"/>
			<path fill="#005E93" d="M100.475,84l3.647,62h-8.637l3.647-62H100.475 M103.303,81h-7l-4,68h15L103.303,81L103.303,81z"/>
		</g>

			<line fill="none" stroke="#005E93" stroke-width="3" stroke-linejoin="round" stroke-miterlimit="10" x1="100" y1="88.5" x2="96" y2="88.5"/>

			<line fill="none" stroke="#005E93" stroke-width="3" stroke-linejoin="round" stroke-miterlimit="10" x1="101" y1="114.5" x2="95" y2="114.5"/>

			<line fill="none" stroke="#005E93" stroke-width="3" stroke-linejoin="round" stroke-miterlimit="10" x1="103" y1="127.5" x2="98" y2="127.5"/>

			<line fill="none" stroke="#005E93" stroke-width="3" stroke-linejoin="round" stroke-miterlimit="10" x1="102" y1="140.5" x2="94" y2="140.5"/>
	</g>
	<g>
		<path fill="#9DDAF3" d="M138.933,90.5c-0.058,0-0.119-0.01-0.184-0.029l-15.412-4.595l-2.468-3.292l-4.093,1.637l-15.645-3.583
			c5.479-3.076,10.525-5.448,16.217-5.448c1.853,0,3.685,0.245,5.6,0.748c6.671,1.752,11.594,5.843,16.459,13.678
			c0.117,0.189,0.124,0.381,0.019,0.57C139.342,90.338,139.168,90.5,138.933,90.5z"/>
		<path fill="#005E93" d="M117.349,76.692L117.349,76.692c1.722,0,3.428,0.228,5.218,0.698c5.653,1.485,9.996,4.799,14.202,10.926
			l-12.529-3.735l-1.482-1.976l-1.379-1.839l-2.135,0.854l-2.59,1.036l-11.284-2.584C109.361,78.067,113.212,76.692,117.349,76.692
			 M117.348,73.692c-7.192,0-13.309,3.516-20.293,7.553l19.843,4.544l3.46-1.384l2.076,2.768l15.886,4.736
			c0.209,0.062,0.414,0.091,0.612,0.091c1.535,0,2.641-1.74,1.749-3.175c-4.153-6.688-9.166-12.187-17.353-14.337
			C121.235,73.938,119.254,73.691,117.348,73.692L117.348,73.692z"/>
	</g>
	<g>
		<path fill="#9DDAF3" d="M99.569,78.559c1.805-8.166,3.96-14.713,11.041-19.396c3.965-2.622,8.39-3.896,13.529-3.896
			c2.283,0,4.782,0.244,7.639,0.746c0.337,0.059,0.435,0.312,0.462,0.458c0.028,0.147,0.031,0.421-0.264,0.602l-13.699,8.424
			l-4.099-0.354l-1.508,4.141L99.569,78.559z"/>
		<path fill="#005E93" d="M124.139,56.767c1.518,0,3.14,0.113,4.913,0.344l-11.139,6.85l-2.461-0.213l-2.291-0.198l-0.787,2.16
			l-0.954,2.621l-9.452,6.69c1.635-6.051,3.99-10.985,9.469-14.607C115.201,57.926,119.237,56.767,124.139,56.767 M124.139,53.767
			c-4.936,0-9.728,1.085-14.357,4.145C101.167,63.61,99.387,72.01,97.303,82l16.615-11.761l1.275-3.502l3.447,0.298l14.121-8.684
			c1.625-0.999,1.155-3.486-0.724-3.816C129.366,54.066,126.733,53.767,124.139,53.767L124.139,53.767z"/>
	</g>
	<g>
		<path fill="#9DDAF3" d="M87.617,67.588l-0.69-4.354l-4.092-0.434L70.994,51.919c-0.252-0.232-0.2-0.498-0.146-0.636
			c0.054-0.137,0.193-0.367,0.529-0.367c9.236,0.166,15.27,2.298,20.192,7.129c6.058,5.947,6.925,12.785,7.14,21.145L87.617,67.588z
			"/>
		<path fill="#005E93" d="M73.859,52.515c7.416,0.474,12.488,2.505,16.659,6.6c4.687,4.601,6.058,9.893,6.509,16.145l-8.002-8.37
			l-0.437-2.755l-0.36-2.271l-2.286-0.243l-2.456-0.261L73.859,52.515 M71.376,49.415c-1.88,0-2.792,2.326-1.398,3.608
			l12.205,11.217l3.441,0.365l0.584,3.68L100.276,83c-0.14-10.204-0.285-18.789-7.657-26.026c-6.04-5.93-13.33-7.418-21.202-7.559
			C71.404,49.416,71.39,49.415,71.376,49.415L71.376,49.415z"/>
	</g>
	<g>
		<path fill="#9DDAF3" d="M61.371,89.5c-0.235,0-0.409-0.162-0.493-0.313c-0.105-0.189-0.099-0.381,0.019-0.57
			c4.866-7.835,9.788-11.926,16.459-13.678c1.916-0.503,3.747-0.748,5.6-0.748c5.692,0,10.738,2.372,16.217,5.448l-15.645,3.583
			l-4.092-1.637l-2.468,3.292l-15.412,4.595C61.491,89.49,61.429,89.5,61.371,89.5z"/>
		<path fill="#005E93" d="M82.955,75.692c4.137,0,7.987,1.375,11.978,3.379l-11.284,2.584l-2.59-1.036l-2.135-0.854l-1.379,1.839
			l-1.482,1.976l-12.529,3.735c4.206-6.127,8.549-9.441,14.202-10.926C79.526,75.92,81.233,75.692,82.955,75.692 M82.955,72.692
			c-1.906,0-3.887,0.247-5.981,0.797c-8.187,2.15-13.199,7.649-17.353,14.337C58.731,89.261,59.837,91,61.371,91
			c0.198,0,0.403-0.029,0.612-0.091l15.886-4.736l2.076-2.768l3.46,1.384l19.843-4.544C96.265,76.208,90.147,72.692,82.955,72.692
			L82.955,72.692z"/>
	</g>
	<g>
		<path fill="#FFFFFF" d="M102.424,88.258c-2.966,0-5.379-2.413-5.379-5.379c0-2.966,2.413-5.379,5.379-5.379
			s5.379,2.413,5.379,5.379C107.804,85.845,105.391,88.258,102.424,88.258z"/>
		<path fill="#005E93" d="M102.424,79c2.139,0,3.879,1.74,3.879,3.879c0,2.139-1.74,3.879-3.879,3.879
			c-2.139,0-3.879-1.74-3.879-3.879C98.545,80.74,100.285,79,102.424,79 M102.424,76c-3.799,0-6.879,3.08-6.879,6.879
			c0,3.799,3.08,6.879,6.879,6.879c3.799,0,6.879-3.08,6.879-6.879C109.303,79.08,106.224,76,102.424,76L102.424,76z"/>
	</g>
	<g>
		<path fill="#FFFFFF" d="M95.183,93.5c-2.966,0-5.379-2.413-5.379-5.379c0-2.966,2.413-5.379,5.379-5.379
			c2.966,0,5.379,2.413,5.379,5.379C100.562,91.087,98.149,93.5,95.183,93.5z"/>
		<path fill="#005E93" d="M95.183,84.242c2.139,0,3.879,1.74,3.879,3.879c0,2.139-1.74,3.879-3.879,3.879
			c-2.139,0-3.879-1.74-3.879-3.879C91.303,85.982,93.044,84.242,95.183,84.242 M95.183,81.242c-3.799,0-6.879,3.08-6.879,6.879
			c0,3.799,3.08,6.879,6.879,6.879c3.799,0,6.879-3.08,6.879-6.879C102.062,84.322,98.982,81.242,95.183,81.242L95.183,81.242z"/>
	</g>
</g>
<g>

		<line fill="none" stroke="#005E93" stroke-width="3" stroke-linecap="round" stroke-miterlimit="10" x1="164.093" y1="98.753" x2="138.876" y2="155.393"/>
	<path fill="#005E93" d="M160.436,102.092c-10.68-3.782-22.53,0.768-27.708,10.91c-0.191,0.375-0.011,0.801,0.332,0.954
		c0.1,0.044,0.213,0.066,0.335,0.056l2.295-0.185c1.518-0.122,3.012,0.146,4.358,0.744c1.458,0.649,2.74,1.687,3.687,3.038
		l1.665,2.376l0.636-0.028c2.81-0.125,5.57,0.413,8.076,1.529c2.337,1.04,4.452,2.582,6.18,4.555l0.826,0.943l0.073-0.012
		c2.418-0.413,4.852-0.081,7.012,0.881c1.831,0.815,3.466,2.083,4.728,3.735l0.056,0.073c0.072,0.094,0.161,0.162,0.257,0.205
		c0.332,0.148,0.756,0.001,0.903-0.38c4.095-10.639-0.448-22.505-10.407-27.921L160.436,102.092z"/>
	<path fill="#FFFFFF" d="M141.268,111.831c-1.139-0.507-2.352-0.831-3.587-0.964c4.364-5.354,11.246-7.994,18.033-7.027
		c-3.126,1.799-6.837,5.102-10.252,11.144C144.312,113.642,142.891,112.554,141.268,111.831z"/>
	<path fill="#9DDAF3" d="M161.491,105.845c1.112,2.438,2.701,7.778-0.3,16.836c-1.717-1.63-3.671-2.962-5.858-3.935
		c-2.376-1.058-4.955-1.659-7.555-1.779c4.546-8.328,9.438-10.821,12.445-11.685L161.491,105.845z"/>
	<path fill="#0A9FDB" d="M169.425,125.111c-1.738-0.774-3.584-1.2-5.456-1.289c2.327-6.929,2.254-12.122,1.524-15.673
		c5.458,4.498,8.136,11.653,6.86,18.683C171.446,126.153,170.463,125.574,169.425,125.111z"/>
</g>
<g>
	<path fill="#9DDAF3" d="M164.422,81.5l-4.549-0.032l-0.068-0.007c-3.955-0.394-6.938-3.938-6.938-8.245
		c0-5.985,4.359-8.711,8.409-8.711c1.82,0,3.479,0.532,4.634,1.473c1.332-1.49,3.802-3.572,7.193-3.572
		c0.46,0,0.929,0.04,1.393,0.117c3.834,0.639,6.758,3.14,7.777,6.595c0.713-0.318,1.482-0.484,2.258-0.484
		c3.291,0,5.969,2.886,5.969,6.433c0,2.904-1.825,5.454-4.439,6.202l-0.164,0.047l-3.561,0.185H164.422z"/>
	<g>
		<path fill="#005E93" d="M173.104,63.906c0.37,0,0.751,0.03,1.145,0.096c3.302,0.55,5.985,2.718,6.724,6.078
			c0.105,0.478,0.52,0.781,0.962,0.781c0.17,0,0.343-0.045,0.504-0.141c0.622-0.373,1.333-0.587,2.093-0.587
			c2.468,0,4.469,2.209,4.469,4.933c0,2.296-1.428,4.209-3.352,4.759L182.297,80h-17.875l-4.469-0.031
			c-3.131-0.312-5.586-3.214-5.586-6.752c0-5.156,3.681-7.211,6.909-7.211c1.584,0,3.06,0.495,3.937,1.361
			c0.215,0.212,0.489,0.321,0.759,0.321c0.28,0,0.555-0.117,0.754-0.358C167.838,65.982,170.047,63.906,173.104,63.906
			 M173.104,60.906c-2.658,0-5.235,1.104-7.408,3.143c-1.264-0.674-2.795-1.043-4.419-1.043c-2.503,0-4.862,0.858-6.641,2.414
			c-1.491,1.305-3.269,3.716-3.269,7.797c0,5.081,3.563,9.267,8.289,9.738l0.138,0.014l0.139,0.001L164.401,83l17.896,0h0.078
			l0.078-0.004l3.352-0.174l0.341-0.018l0.328-0.094c3.254-0.93,5.527-4.074,5.527-7.644c0-4.375-3.35-7.933-7.469-7.933
			c-0.455,0-0.907,0.045-1.352,0.133c-1.493-3.266-4.564-5.577-8.437-6.223C174.197,60.952,173.646,60.906,173.104,60.906
			L173.104,60.906z"/>
	</g>
</g>
<g>
	<path fill="#FFFFFF" d="M52.173,159.5c2.577-6.368,11.792-25.931,27.705-25.931c0.344,0,0.693,0.009,1.044,0.027
		c9.934,0.521,14.887,3.451,20.131,6.554c4.47,2.645,9.092,5.379,16.761,6.338c1.249,0.156,2.593,0.232,4.109,0.232
		c3.31,0,6.9-0.366,10.701-0.754c4.235-0.431,8.614-0.877,13.101-0.877c9.341,0,21.183,1.701,31.282,14.41H52.173z"/>
	<path fill="#005E93" d="M79.877,135.069C79.877,135.069,79.877,135.069,79.877,135.069c0.318,0,0.642,0.008,0.966,0.025
		c9.566,0.501,14.365,3.34,19.446,6.346c4.602,2.723,9.36,5.538,17.339,6.536c1.311,0.164,2.716,0.243,4.295,0.243
		c3.387,0,7.014-0.37,10.854-0.761c4.198-0.428,8.538-0.87,12.948-0.87c8.358,0,18.793,1.412,28.024,11.41H54.431
		C57.749,150.528,66.259,135.068,79.877,135.069 M79.878,132.069C59.642,132.067,50,161,50,161h130
		c-10.113-14.372-22.494-17.41-34.275-17.41c-8.631,0-16.941,1.631-23.802,1.631c-1.368,0-2.678-0.065-3.923-0.22
		c-16-2-17.921-11.903-37-12.901C80.623,132.079,80.247,132.069,79.878,132.069L79.878,132.069z"/>
</g>
</svg>
